<?xml version="1.0" standalone="no"?>
<!DOCTYPE svg PUBLIC "-//W3C//DTD SVG 20010904//EN"
 "http://www.w3.org/TR/2001/REC-SVG-20010904/DTD/svg10.dtd">
<svg version="1.0" xmlns="http://www.w3.org/2000/svg"
 width="1024.000000pt" height="1024.000000pt" viewBox="0 0 1024.000000 1024.000000"
 preserveAspectRatio="xMidYMid meet">
<metadata>
Created by potrace 1.14, written by Peter Selinger 2001-2017
</metadata>
<g transform="translate(0.000000,1024.000000) scale(0.100000,-0.100000)"
fill="#000000" stroke="none">
<path d="M3017 9830 c-2247 -450 -2114 -419 -2222 -521 -69 -66 -108 -126
-134 -213 -33 -108 -26 -227 21 -336 38 -88 140 -191 231 -233 l47 -22 0 -713
0 -714 -160 -798 c-88 -439 -160 -821 -160 -849 0 -111 81 -235 185 -283 49
-23 57 -23 433 -26 326 -2 392 -1 438 13 75 22 150 85 187 159 55 108 57 90
-122 982 l-161 802 0 646 c0 355 4 646 8 646 8 0 890 -175 930 -185 l22 -5 0
-648 c0 -699 4 -780 55 -1020 130 -618 470 -1148 980 -1527 335 -250 710 -407
1135 -477 114 -19 174 -22 390 -22 288 0 415 15 657 79 914 240 1632 984 1838
1901 58 260 57 245 62 1006 l4 708 22 5 c12 3 367 74 788 159 844 168 850 170
950 263 211 196 211 510 2 705 -109 101 37 67 -2221 518 -1407 282 -2066 410
-2107 409 -37 0 -854 -159 -2098 -409z"/>
<path d="M2887 3689 c-153 -43 -429 -163 -600 -260 -798 -453 -1363 -1209
-1566 -2095 -81 -351 -104 -747 -53 -904 66 -203 231 -357 438 -410 76 -20
129 -20 4014 -20 3885 0 3938 0 4014 20 226 57 400 235 450 457 37 165 6 562
-70 882 -218 927 -853 1724 -1709 2146 -172 84 -357 158 -464 186 -170 43
-335 10 -483 -98 -42 -30 -293 -295 -1323 -1390 -260 -278 -275 -288 -420
-288 -157 0 5 -157 -1550 1498 -150 159 -194 196 -290 242 -124 59 -260 71
-388 34z"/>
</g>
</svg>
